# xmcd
# 
# Track frame offsets:
#     150
#     11806
#     26028
#     38808
#     49115
#     63113
#     74848
#     88224
#     101709
#     117316
#     129900
#     141452
#     157621
#     171193
#     183243
#     198012
#     210143
#     224400
# 
# Disc length: 3123
# 
# Revision: 3
# Processed by: cddbd v1.5.2PL0 Copyright (c) Steve Scherf et al.
# Submitted via: fre:ac v1.0.27
# 
DISCID=fd0c3112
DTITLE=Various Artist - The World of Truckers CD1
DYEAR=1997
DGENRE=Country
TTITLE0=Dave Dudley - Six Days On The Road
TTITLE1=Bobby Bare - A Million Miles To The City
TTITLE2=Dave Dudley - Me And Ole C.B.
TTITLE3=David Price - Jack Knife
TTITLE4=Freddy Quinn - Take Me Home, Country Roads
TTITLE5=Ferlin Husky - I Could Sing All Night
TTITLE6=Ronnie Rogers - Diane (Do The Wrong Again With Me)
TTITLE7=Rick Johnson - If You Are Going To Tulsa
TTITLE8=Karen O'Donnel - I Know What It´s All About Now, Mama
TTITLE9=George Kent - Hardscuffle Road
TTITLE10=RedTaylor and Bobby Rude - Sweet Sandy Page(Home On The Range)
TTITLE11=Bobby Bare - Me And Bobby McGee
TTITLE12=Freddy Quinn - O Lonesome Me
TTITLE13=Dave Dudley - Rollin' On We Gone
TTITLE14=Reno Riggins - Tom Dooley
TTITLE15=David Price - I Need A Friend
TTITLE16=Bobby Lord - Freedom
TTITLE17=Dave Dudley - Truck Driving Son-Of-A-Gun
EXTD=
EXTT0=
EXTT1=
EXTT2=
EXTT3=
EXTT4=
EXTT5=
EXTT6=
EXTT7=
EXTT8=
EXTT9=
EXTT10=
EXTT11=
EXTT12=
EXTT13=
EXTT14=
EXTT15=
EXTT16=
EXTT17=
PLAYORDER=
